<?xml version="1.0" encoding="UTF-8"?>
<svg version="1.1" xmlns="http://www.w3.org/2000/svg" width="512" height="512">
<path d="M0 0 C4.88068841 2.32424469 9.79486107 4.56320844 14.73388672 6.76025391 C15.98999756 7.35181274 15.98999756 7.35181274 17.27148438 7.95532227 C18.06474121 8.30860596 18.85799805 8.66188965 19.67529297 9.02587891 C20.69345093 9.49429199 20.69345093 9.49429199 21.73217773 9.97216797 C28.22353722 11.40415239 33.46762649 9.21047931 39.09326172 6.13134766 C40.37936821 5.45034423 41.66583831 4.77002714 42.95263672 4.09033203 C44.93652747 3.02428423 46.91563902 1.95092099 48.88818359 0.86401367 C57.19039893 -3.682092 64.41693893 -7.14270047 74.17138672 -5.48974609 C79.53615315 -3.73917026 82.51203189 -0.39932423 85.17138672 4.51025391 C86.50305042 8.33062453 86.30754935 12.24726838 86.29164124 16.24237061 C86.29292287 17.41743491 86.29292287 17.41743491 86.2942304 18.61623788 C86.29587861 21.24336799 86.29037459 23.87043436 86.28491211 26.49755859 C86.28463007 28.37989806 86.2847883 30.26223763 86.28535461 32.14457703 C86.28564193 37.25782306 86.27975574 42.37104571 86.27278066 47.48428631 C86.26653626 52.82678293 86.26594246 58.16928007 86.26475525 63.51177979 C86.26164515 73.62999361 86.25343606 83.74819665 86.24340576 93.86640573 C86.23223469 105.38502032 86.22673166 116.90363542 86.22171032 128.42225409 C86.2112532 152.11826001 86.19365994 175.81425635 86.17138672 199.51025391 C86.85637238 199.71013916 87.54135803 199.91002441 88.24710083 200.1159668 C89.14653412 200.38143311 90.04596741 200.64689941 90.97265625 200.92041016 C91.86389191 201.18217041 92.75512756 201.44393066 93.67337036 201.71362305 C104.31452691 205.10714513 112.44383999 212.79424083 120.17138672 220.51025391 C120.76693359 221.09419922 121.36248047 221.67814453 121.97607422 222.27978516 C130.29170012 231.15727767 135.33316559 242.85270159 138.17138672 254.51025391 C138.46529297 255.62787109 138.46529297 255.62787109 138.76513672 256.76806641 C139.38452998 260.94897089 139.27479137 265.10328187 139.23388672 269.32275391 C139.229375 270.20640625 139.22486328 271.09005859 139.22021484 272.00048828 C139.20848538 274.1704395 139.19055167 276.34035562 139.17138672 278.51025391 C139.92162109 278.46384766 140.67185547 278.41744141 141.44482422 278.36962891 C149.70215469 278.07843841 156.80017453 278.70812406 163.24169922 284.31103516 C169.11412948 290.63802592 171.63330084 296.74132747 171.55906677 305.35275269 C171.56714508 306.49151012 171.56714508 306.49151012 171.57538658 307.65327275 C171.58962201 310.18112582 171.58257353 312.70845195 171.57543945 315.23632812 C171.58114538 317.05525125 171.5881105 318.8741708 171.59623718 320.69308472 C171.61416016 325.6229211 171.61300168 330.5525794 171.6072948 335.48243856 C171.60420138 339.60262871 171.61029719 343.72278473 171.61633354 347.84297001 C171.63037465 357.56591521 171.62882122 367.28877254 171.61743164 377.01171875 C171.60595359 387.03139548 171.62002182 397.05080445 171.64682811 407.0704459 C171.66900441 415.68298978 171.67561805 424.29544974 171.6697517 432.90802014 C171.66638522 438.04747818 171.66877664 443.18676463 171.68600273 448.32619858 C171.70150026 453.1608261 171.69748514 457.9950579 171.67869759 462.82966995 C171.67501933 464.5997078 171.67809784 466.36977515 171.68858337 468.13978577 C171.74335421 478.15316541 171.5869445 486.43757537 165.49560547 494.81494141 C164.95548828 495.33314453 164.41537109 495.85134766 163.85888672 496.38525391 C163.32650391 496.91892578 162.79412109 497.45259766 162.24560547 498.00244141 C154.80346101 503.41236186 147.38225266 502.93783702 138.48866272 502.89793396 C136.97864191 502.90210887 135.46862424 502.90758726 133.95861238 502.91425377 C129.81683404 502.92870642 125.67525473 502.92446425 121.5334655 502.91708696 C117.06370877 502.91235716 112.59399522 502.92486345 108.12425232 502.93510437 C99.37075788 502.9523012 90.6173352 502.95313057 81.86382825 502.94789147 C74.74925799 502.9438503 67.63470894 502.94529269 60.52013969 502.95063972 C59.50761569 502.95138815 58.49509169 502.95213657 57.45188515 502.95290767 C55.39495973 502.95443914 53.33803432 502.95597749 51.28110891 502.95752264 C31.99145352 502.97125079 12.70183869 502.96580769 -6.58781577 502.95433743 C-24.23562378 502.94440396 -41.88332696 502.95734713 -59.5311188 502.98127162 C-77.65226882 503.00565274 -95.77336999 503.01527296 -113.89453608 503.00861889 C-124.06806236 503.00512458 -134.24150801 503.0073728 -144.4150219 503.02486992 C-153.07517406 503.03957951 -161.7351888 503.04024356 -170.39533823 503.02279901 C-174.81357041 503.01427654 -179.23155697 503.01216985 -183.64977646 503.02745056 C-187.69571815 503.04127049 -191.74120317 503.03656948 -195.78711826 503.01721133 C-197.24935528 503.01344271 -198.71162865 503.01639814 -200.17383336 503.02682298 C-209.52129647 503.08871795 -216.03173122 502.69800809 -223.28955078 496.36181641 C-223.92119141 495.62705078 -224.55283203 494.89228516 -225.20361328 494.13525391 C-225.85072266 493.40564453 -226.49783203 492.67603516 -227.16455078 491.92431641 C-230.64822423 486.87053662 -231.12345149 481.78477564 -231.10276794 475.79473877 C-231.11062296 474.65832132 -231.11062296 474.65832132 -231.11863667 473.49894595 C-231.13359044 470.97043468 -231.1343408 468.4421266 -231.13500977 465.91357422 C-231.1426344 464.09642192 -231.15106242 462.27927284 -231.16023254 460.46212769 C-231.18215528 455.53221045 -231.19097354 450.60235523 -231.19605899 445.67239475 C-231.19970539 442.58976319 -231.20594696 439.50714779 -231.21306038 436.4245224 C-231.2375478 425.66272775 -231.25060511 414.90098124 -231.25415039 404.13916016 C-231.2577844 394.12005983 -231.28767205 384.10126607 -231.32955498 374.08225942 C-231.36428807 365.47057781 -231.37969936 356.85899766 -231.38039643 348.2472465 C-231.38118825 343.10823754 -231.38988344 337.96954092 -231.41839409 332.83060455 C-231.44462619 327.99430556 -231.44675123 323.15857676 -231.43073845 318.32223892 C-231.42892801 316.55260853 -231.43557792 314.78294495 -231.45155716 313.01338577 C-231.5387835 302.7220012 -231.4042447 293.66783352 -224.11928463 285.62251663 C-218.3013116 279.99836564 -212.28406334 278.35079897 -204.32861328 278.32275391 C-202.49483416 278.37041401 -200.66115713 278.42778943 -198.82861328 278.51025391 C-198.87501953 277.31271484 -198.92142578 276.11517578 -198.96923828 274.88134766 C-199.51479847 254.79104168 -194.48773981 236.77971956 -180.82861328 221.51025391 C-180.18537109 220.77419922 -179.54212891 220.03814453 -178.87939453 219.27978516 C-170.58074119 210.36755301 -159.56750549 202.97856297 -147.82861328 199.51025391 C-147.16861328 199.51025391 -146.50861328 199.51025391 -145.82861328 199.51025391 C-145.83749573 198.25602127 -145.84637817 197.00178864 -145.85552979 195.70954895 C-145.93658912 183.89409232 -145.9965661 172.07869204 -146.03586197 160.26302052 C-146.0567435 154.18833141 -146.08507206 148.11386663 -146.13037109 142.03930664 C-146.17380778 136.17785624 -146.19774612 130.31662173 -146.20812225 124.45502281 C-146.21551747 122.2178781 -146.22995844 119.9807453 -146.25153351 117.7436924 C-146.28053785 114.61198954 -146.28457043 111.48118063 -146.28271484 108.34936523 C-146.29709595 107.42291702 -146.31147705 106.49646881 -146.32629395 105.54194641 C-146.29920703 101.32174593 -146.19143707 99.09653398 -143.92523193 95.43461609 C-141.66368423 93.35887529 -140.84622333 92.84755982 -137.82861328 92.94775391 C-137.16861328 92.94646484 -136.50861328 92.94517578 -135.82861328 92.94384766 C-133.82861328 93.51025391 -133.82861328 93.51025391 -129.82861328 97.51025391 C-129.82861328 130.18025391 -129.82861328 162.85025391 -129.82861328 196.51025391 C-63.82861328 196.51025391 2.17138672 196.51025391 70.17138672 196.51025391 C70.17138672 135.13025391 70.17138672 73.75025391 70.17138672 10.51025391 C62.24578818 13.63174147 62.24578818 13.63174147 54.66357422 17.23681641 C53.73931641 17.71119141 52.81505859 18.18556641 51.86279297 18.67431641 C49.97583712 19.65312568 48.09043106 20.63492812 46.20654297 21.61962891 C34.87553748 27.41983591 26.3379916 28.7602051 14.04321289 24.90527344 C5.77861649 22.05885011 -2.06128198 17.94323679 -9.91015625 14.12646484 C-12.18329345 13.0255261 -14.4658791 11.94651462 -16.75048828 10.86962891 C-17.42883728 10.53219666 -18.10718628 10.1947644 -18.80609131 9.84710693 C-24.44692788 7.21202327 -29.79995796 6.31337209 -35.87091064 8.11700439 C-37.93635078 8.94745872 -39.91371037 9.87823377 -41.90673828 10.86962891 C-43.00668121 11.38810394 -43.00668121 11.38810394 -44.12884521 11.91705322 C-46.45353846 13.01532425 -48.7664444 14.13588613 -51.07861328 15.26025391 C-81.58550405 29.94947335 -81.58550405 29.94947335 -95.77270508 25.61352539 C-102.03015498 23.35440451 -107.93992155 20.2780976 -113.89111328 17.32275391 C-115.88120258 16.34225213 -117.87232352 15.36390486 -119.86436462 14.38737488 C-121.64874746 13.51147432 -123.43028793 12.62979032 -125.21166992 11.74780273 C-127.49681384 10.43900287 -127.49681384 10.43900287 -128.82861328 10.51025391 C-128.83225891 11.24052795 -128.83590454 11.970802 -128.83966064 12.72320557 C-128.87754595 19.60936208 -128.93440464 26.49512947 -129.01251602 33.38093948 C-129.05200583 36.92097055 -129.08418645 40.46075234 -129.09960938 44.00097656 C-129.117667 48.07218334 -129.16761053 52.14245845 -129.21923828 56.21337891 C-129.22046692 57.48328674 -129.22169556 58.75319458 -129.22296143 60.06158447 C-129.24268005 61.24250671 -129.26239868 62.42342896 -129.28271484 63.64013672 C-129.29603851 65.19900604 -129.29603851 65.19900604 -129.30963135 66.78936768 C-129.95824121 70.18985914 -131.15731586 71.37856527 -133.82861328 73.51025391 C-135.82861328 74.07666016 -135.82861328 74.07666016 -137.82861328 74.07275391 C-138.81861328 74.105625 -138.81861328 74.105625 -139.82861328 74.13916016 C-142.96065952 73.15427843 -144.02737233 71.18654602 -145.82861328 68.51025391 C-146.32981873 65.6849823 -146.32981873 65.6849823 -146.33032227 62.56176758 C-146.33970322 61.38672165 -146.34908417 60.21167572 -146.35874939 59.00102234 C-146.34751541 57.73949844 -146.33628143 56.47797455 -146.32470703 55.17822266 C-146.32616226 53.87250809 -146.32761749 52.56679352 -146.32911682 51.22151184 C-146.33049901 48.4600503 -146.31797924 45.69910923 -146.29516602 42.93774414 C-146.26686481 39.41733733 -146.26949788 35.89780012 -146.28225613 32.37732983 C-146.29093358 28.99837194 -146.2757422 25.619666 -146.26220703 22.24072266 C-146.26514267 20.98527145 -146.26807831 19.72982025 -146.27110291 18.43632507 C-146.11982626 4.30946454 -146.11982626 4.30946454 -141.51853943 -1.00202942 C-136.94899574 -5.1466547 -132.92720169 -6.55956215 -126.83642578 -6.35693359 C-120.82091777 -5.61725703 -115.86155757 -2.96199585 -110.51611328 -0.23974609 C-108.4791597 0.76189637 -106.44140688 1.76191523 -104.40283203 2.76025391 C-102.95529541 3.47568359 -102.95529541 3.47568359 -101.47851562 4.20556641 C-98.28236308 5.77920186 -95.08223568 7.3087012 -91.82861328 8.76025391 C-91.00361328 9.13666016 -90.17861328 9.51306641 -89.32861328 9.90087891 C-82.80840909 11.49017868 -77.01184618 8.51116093 -71.26220703 5.76416016 C-70.06652855 5.20739845 -70.06652855 5.20739845 -68.84669495 4.63938904 C-66.31567046 3.45917595 -63.79069458 2.26667902 -61.26611328 1.07275391 C-58.73703821 -0.11548468 -56.20675271 -1.30103241 -53.67481995 -2.48316956 C-52.10468912 -3.21705847 -50.53633648 -3.95476787 -48.97007751 -4.69688416 C-30.16823609 -13.52445654 -17.84139847 -8.50681762 0 0 Z M-146.82861328 216.51025391 C-147.72877513 216.8677453 -148.62893698 217.2252367 -149.55637646 217.59356117 C-163.54152904 223.45895878 -174.01328472 236.91578222 -179.82861328 250.51025391 C-182.90670531 259.02379229 -183.27570243 267.19902157 -183.2644043 276.17382812 C-183.27340107 277.61560335 -183.28361366 279.05737142 -183.29493713 280.49913025 C-183.32122299 284.38096162 -183.32846077 288.26259418 -183.33038449 292.14450598 C-183.33252665 294.5730133 -183.33894907 297.00147104 -183.34687614 299.42996597 C-183.37454186 307.91021149 -183.38689064 316.3903163 -183.38452148 324.87060547 C-183.38271385 332.76614041 -183.41449554 340.661064 -183.46175247 348.55644405 C-183.50096577 355.35077227 -183.51707413 362.14490018 -183.51515526 368.93934071 C-183.51439091 372.99112055 -183.52291224 377.04235418 -183.55468941 381.09402084 C-183.58371866 384.8980015 -183.58398307 388.70091226 -183.56213951 392.5049305 C-183.55900165 393.89933014 -183.56609357 395.2937964 -183.58422089 396.68808174 C-183.90501605 403.86529264 -183.90501605 403.86529264 -181.61976242 410.45401669 C-178.67125201 413.13995037 -175.74816369 414.13078837 -171.83300781 414.07788086 C-170.42222458 414.07731438 -170.42222458 414.07731438 -168.98294067 414.07673645 C-167.4872908 414.03802681 -167.4872908 414.03802681 -165.96142578 413.99853516 C-164.92670135 413.99146042 -163.89197693 413.98438568 -162.82589722 413.97709656 C-159.53438774 413.94919978 -156.24460502 413.88646758 -152.95361328 413.82275391 C-150.71665875 413.79766505 -148.47967745 413.77485292 -146.24267578 413.75439453 C-140.77073656 413.69938885 -135.2997983 413.61580962 -129.82861328 413.51025391 C-129.81926758 412.34042969 -129.80992187 411.17060547 -129.80029297 409.96533203 C-129.76021266 405.59646491 -129.6944047 401.22828867 -129.62109375 396.85986328 C-129.59298831 394.97453737 -129.57172222 393.08909591 -129.55761719 391.20361328 C-129.5360424 388.48231291 -129.48931979 385.7623866 -129.43798828 383.04150391 C-129.43675964 382.20784302 -129.43553101 381.37418213 -129.43426514 380.51525879 C-129.2580929 373.36579727 -127.09454177 368.27972206 -122.57861328 362.76025391 C-114.16726464 355.87824138 -106.39537026 355.93354075 -95.99267578 355.99267578 C-94.38872646 355.98724945 -92.78478213 355.98012393 -91.18084717 355.97143555 C-86.84195392 355.95325985 -82.50344275 355.96024578 -78.16454315 355.97295189 C-73.61456811 355.98310948 -69.06462483 355.97367856 -64.51464844 355.96740723 C-56.87510328 355.96013884 -49.23571302 355.96969725 -41.59619141 355.98876953 C-32.77557524 356.01053674 -23.95532896 356.0034848 -15.13472176 355.98146391 C-7.54890347 355.96328682 0.03680375 355.96076286 7.6226368 355.97121859 C12.1477985 355.97744084 16.67278659 355.97832416 21.19793701 355.96507263 C25.45314519 355.95348106 29.70787847 355.96159982 33.96303558 355.98464966 C35.52062951 355.98991916 37.0782637 355.98845319 38.63584137 355.979599 C48.36814784 355.9293937 55.14125338 356.39469027 62.92138672 362.76025391 C68.16069289 369.16385034 69.76869527 374.85412478 69.78076172 383.04150391 C69.79729797 383.91802612 69.81383423 384.79454834 69.83087158 385.69763184 C69.87905175 388.46857925 69.90065519 391.23897914 69.92138672 394.01025391 C69.94957156 395.90090601 69.97950247 397.79153294 70.01123047 399.68212891 C70.08480227 404.29145876 70.1345594 408.90048999 70.17138672 413.51025391 C76.75483549 413.63726856 83.33796709 413.72469485 89.92236328 413.78491211 C92.16109017 413.81002084 94.39973536 413.84411476 96.63818359 413.88745117 C99.86039406 413.94826109 103.08151865 413.97650067 106.30419922 413.99853516 C107.30129913 414.02434158 108.29839905 414.05014801 109.32571411 414.07673645 C110.26623627 414.07711411 111.20675842 414.07749176 112.17578125 414.07788086 C113.40822067 414.09453545 113.40822067 414.09453545 114.66555786 414.11152649 C118.53063039 413.18410396 121.07536079 411.8744271 123.17138672 408.51025391 C124.07662017 403.91177986 123.97137436 399.3219305 123.91601562 394.65478516 C123.92087431 393.22687215 123.92831574 391.79896596 123.93814087 390.37107849 C123.95694258 386.49629461 123.93811694 382.62252282 123.91147661 378.74781799 C123.88879669 374.68197534 123.89706744 370.61618074 123.90097046 366.55029297 C123.90273644 359.7140254 123.88058784 352.87815436 123.84375 346.04199219 C123.80154939 338.16614581 123.79436584 330.29088302 123.80687392 322.41494656 C123.81831904 314.81646035 123.80689363 307.21817737 123.78452682 299.61972046 C123.77529703 296.39834795 123.77346007 293.17710103 123.77769852 289.95571899 C123.78150398 286.14697414 123.76495819 282.33881122 123.73357773 278.53019905 C123.72122484 276.48716516 123.72804862 274.44404256 123.73571777 272.40098572 C123.5219373 253.57926348 116.37449406 239.43244407 103.17138672 226.51025391 C92.9158843 217.02243785 79.22027995 212.18775107 65.40034485 212.24282837 C64.55330291 212.23829726 63.70626098 212.23376614 62.83355111 212.22909772 C60.01422169 212.21650537 57.19508673 212.21807075 54.37573242 212.21972656 C52.34640761 212.21373802 50.31708507 212.20693173 48.2877655 212.19937134 C42.78752954 212.18173571 37.28735586 212.17701694 31.78709435 212.17573977 C28.34629374 212.17431604 24.90550885 212.17004221 21.46471214 212.16474533 C9.44806289 212.14625197 -2.56854206 212.13807371 -14.58520508 212.13964844 C-25.76530285 212.14084912 -36.94520735 212.1197593 -48.12525624 212.08816111 C-57.74083697 212.06195847 -67.35635473 212.05128284 -76.97197086 212.05255926 C-82.7073473 212.05306778 -88.44255197 212.04744519 -94.17789268 212.02620316 C-99.57638928 212.00675401 -104.97455142 212.00674192 -110.37306023 212.02123642 C-112.3462193 212.02331745 -114.31939967 212.01866607 -116.29252243 212.0065155 C-127.22719597 211.94358008 -136.56398565 212.35911831 -146.82861328 216.51025391 Z M-213.82861328 298.51025391 C-215.32176318 301.49655371 -214.9684213 304.21135903 -214.98251343 307.54388428 C-214.98689568 308.27639916 -214.99127794 309.00891404 -214.99579298 309.76362634 C-215.00920292 312.23092922 -215.01536476 314.69819636 -215.02148438 317.16552734 C-215.02938363 318.92946536 -215.03765247 320.69340175 -215.04626465 322.45733643 C-215.07250564 328.26141817 -215.08779453 334.06550721 -215.10205078 339.86962891 C-215.10740964 341.86613215 -215.11278715 343.86263534 -215.11818314 345.85913849 C-215.13981507 354.16305287 -215.15855237 362.46696529 -215.16980553 370.77090073 C-215.18604809 382.67915175 -215.21922979 394.58707663 -215.27620637 406.49520469 C-215.31488496 414.8638471 -215.33443576 423.23240221 -215.33972609 431.60113168 C-215.34338246 436.60148188 -215.35543393 441.60148439 -215.38782883 446.60173798 C-215.41787273 451.30663133 -215.42423446 456.01096598 -215.41244507 460.71593475 C-215.41222402 462.4420988 -215.42055469 464.1682885 -215.43809891 465.8943634 C-215.46076758 468.25314507 -215.4525084 470.60989682 -215.43661499 472.96868896 C-215.43992514 474.28794247 -215.44323528 475.60719597 -215.44664574 476.96642685 C-214.62829742 481.65887445 -213.25338082 483.23809525 -209.82861328 486.51025391 C-206.53920122 487.70787989 -203.32780387 487.6365902 -199.85307407 487.63888836 C-198.00652016 487.64372503 -198.00652016 487.64372503 -196.12266213 487.64865941 C-194.75442785 487.64718823 -193.38619367 487.64562051 -192.01795959 487.64396667 C-190.56614051 487.64583446 -189.11432192 487.64813503 -187.66250414 487.650832 C-183.66783489 487.65696038 -179.67318653 487.65681519 -175.67851365 487.65563762 C-171.37237799 487.65543388 -167.0662491 487.6609498 -162.76011658 487.66569519 C-154.32206668 487.67400775 -145.88402377 487.6767503 -137.44597013 487.67730757 C-130.58922258 487.6777824 -123.73247733 487.67983548 -116.87573051 487.68300819 C-97.44588026 487.69181604 -78.01603553 487.69642731 -58.58618326 487.69567772 C-57.01441244 487.69561779 -57.01441244 487.69561779 -55.41088867 487.69555664 C-53.83720441 487.69549532 -53.83720441 487.69549532 -52.23172855 487.69543276 C-35.22192006 487.69502614 -18.2121337 487.70459927 -1.20233161 487.71869501 C16.2531223 487.73304622 33.70856541 487.7399659 51.16402537 487.73910123 C60.96803729 487.73876885 70.77202602 487.74153395 80.57603264 487.75227928 C88.92193177 487.76136774 97.2677972 487.76357316 105.61369913 487.75676986 C109.87350548 487.7534964 114.13324708 487.75347764 118.39304733 487.76212311 C122.29079661 487.76995259 126.18842943 487.76859328 130.08617575 487.75983898 C131.49798019 487.75829613 132.90979318 487.76014949 134.32158756 487.76569905 C136.23771549 487.77273361 138.15387883 487.76628585 140.07000637 487.75914288 C141.66784471 487.75946893 141.66784471 487.75946893 143.29796261 487.75980157 C147.61358338 487.38500376 150.31011231 486.32684586 153.45214081 483.3478241 C155.65276295 479.71575508 155.67446728 477.34572874 155.67932129 473.10913086 C155.68556125 472.37334714 155.69180121 471.63756342 155.69823027 470.87948322 C155.71416015 468.41883932 155.70155672 465.95918606 155.68896484 463.49853516 C155.69438599 461.7325279 155.7015086 459.96652517 155.71020508 458.20053101 C155.72844231 453.40714304 155.72136925 448.61409941 155.70868874 443.82070541 C155.69856316 438.80485861 155.70795319 433.78904132 155.7142334 428.77319336 C155.72151109 420.34988104 155.7119189 411.92670899 155.69287109 403.50341797 C155.67110214 393.76430043 155.67815342 384.02551784 155.70017672 374.28640842 C155.71832723 365.92533532 155.72089073 357.56436307 155.71042204 349.20327663 C155.7041852 344.20924323 155.70335673 339.21536728 155.71656799 334.22134399 C155.72812079 329.52626487 155.72011122 324.83161769 155.69699097 320.13658524 C155.69170082 318.41325218 155.69322289 316.68988279 155.70204163 314.96656418 C155.71296907 312.61434401 155.69926902 310.2635088 155.67932129 307.91137695 C155.67781319 306.59509811 155.67630508 305.27881927 155.67475128 303.9226532 C155.09034973 299.96088949 153.96992821 298.31772039 151.17138672 295.51025391 C148.6466321 294.2478766 146.85938206 294.41168986 144.04638672 294.44775391 C142.68126953 294.46128906 142.68126953 294.46128906 141.28857422 294.47509766 C140.24056641 294.4925 140.24056641 294.4925 139.17138672 294.51025391 C139.16918688 295.40367241 139.16918688 295.40367241 139.1669426 296.31513977 C139.12983626 310.83038388 139.07077096 325.34542488 138.98748398 339.86047363 C138.94773181 346.87996792 138.91532003 353.89935072 138.90039062 360.91894531 C138.88595878 367.69478125 138.85080392 374.47025904 138.8030777 381.24594116 C138.78825425 383.82942703 138.78034516 386.41296223 138.77950287 388.99649048 C138.77713452 392.61863947 138.75006264 396.23983242 138.71728516 399.86181641 C138.72231552 400.92709061 138.72734589 401.99236481 138.73252869 403.08992004 C138.6271961 410.62640401 137.28281166 415.89495448 132.24169922 421.75244141 C131.59974609 422.29126953 130.95779297 422.83009766 130.29638672 423.38525391 C129.65958984 423.93955078 129.02279297 424.49384766 128.36669922 425.06494141 C122.560305 428.88765646 116.69149064 428.80245611 109.9909668 428.78491211 C108.47532387 428.79257851 108.47532387 428.79257851 106.92906189 428.80039978 C103.59961985 428.81426548 100.27038539 428.81334195 96.94091797 428.81103516 C94.62497379 428.81492234 92.30903031 428.81925706 89.99308777 428.82402039 C85.14535202 428.83147505 80.29768912 428.83119572 75.44995117 428.82592773 C69.22873777 428.82011914 63.00782074 428.83710143 56.78665638 428.86027241 C52.00752511 428.87497667 47.2284659 428.87588622 42.44931602 428.87276268 C40.15472512 428.87327706 37.8601303 428.87853665 35.56556129 428.8885746 C32.36471644 428.90086413 29.16445799 428.89419342 25.96362305 428.88256836 C25.01135834 428.8902121 24.05909363 428.89785583 23.07797241 428.9057312 C22.20744736 428.89871689 21.3369223 428.89170258 20.4400177 428.88447571 C19.68364423 428.88464345 18.92727076 428.88481119 18.14797688 428.88498402 C15.59199105 428.40040969 14.71368234 427.57975892 13.17138672 425.51025391 C12.69394084 421.75889341 12.49397729 419.49875024 14.66845703 416.32568359 C18.18479895 413.77520383 21.46862139 413.90740176 25.65576172 413.90087891 C26.47135559 413.88434265 27.28694946 413.8678064 28.1272583 413.85076904 C30.72537769 413.80228807 33.32291181 413.78091868 35.92138672 413.76025391 C37.68573908 413.73209418 39.45006418 413.70216674 41.21435547 413.67041016 C45.53331769 413.59652949 49.85195501 413.54695579 54.17138672 413.51025391 C54.29523756 408.33252645 54.38584243 403.15566603 54.44604492 397.97680664 C54.47114733 396.21623714 54.505237 394.45577144 54.54858398 392.69555664 C54.60942787 390.16087212 54.63763785 387.62756816 54.65966797 385.09228516 C54.6854744 384.30876175 54.71128082 383.52523834 54.73786926 382.7179718 C54.73824692 381.97758163 54.73862457 381.23719147 54.73901367 380.47436523 C54.75011673 379.82816727 54.76121979 379.1819693 54.7726593 378.51618958 C53.78724391 375.22869579 51.76029864 373.68599208 49.17138672 371.51025391 C46.0537052 370.7648333 46.0537052 370.7648333 42.60546875 370.87533569 C41.95952318 370.86753574 41.31357761 370.85973579 40.64805794 370.85169947 C38.4911854 370.83181111 36.33608371 370.84752869 34.17919922 370.86328125 C32.62993339 370.85650361 31.08067563 370.84759965 29.53143311 370.83673096 C25.328847 370.81394801 21.12687502 370.8227695 16.92427826 370.83862638 C12.52502291 370.85129071 8.12581993 370.8395438 3.7265625 370.83169556 C-3.66106603 370.82260052 -11.04844458 370.83458299 -18.43603516 370.85839844 C-26.97554749 370.88560955 -35.51446294 370.87679528 -44.0539608 370.84926641 C-51.38746434 370.82657209 -58.72078826 370.8233768 -66.05431557 370.83645976 C-70.43358773 370.84425254 -74.81257939 370.84530074 -79.1918335 370.82877731 C-83.30921093 370.81432697 -87.42581931 370.82436378 -91.54311371 370.8532486 C-93.05358351 370.85985652 -94.5641181 370.85796663 -96.07456207 370.84693527 C-98.13814481 370.83325432 -100.19926902 370.85041931 -102.26269531 370.87533569 C-103.99376022 370.87816339 -103.99376022 370.87816339 -105.75979614 370.8810482 C-109.80626992 371.7107048 -111.30786985 373.2980101 -113.82861328 376.51025391 C-114.52960265 378.47988897 -114.52960265 378.47988897 -114.39624023 380.47436523 C-114.39586258 381.2147554 -114.39548492 381.95514557 -114.39509583 382.7179718 C-114.3692894 383.50149521 -114.34348297 384.28501862 -114.31689453 385.09228516 C-114.30981979 385.90646408 -114.30274506 386.72064301 -114.29545593 387.55949402 C-114.26756926 390.14820033 -114.20484644 392.73470664 -114.14111328 395.32275391 C-114.11602278 397.08248819 -114.09321092 398.84225654 -114.07275391 400.60205078 C-114.017762 404.90562687 -113.9315332 409.20756801 -113.82861328 413.51025391 C-112.57216003 413.52056137 -111.31570679 413.53086884 -110.0211792 413.54148865 C-98.19059537 413.63916932 -86.36006476 413.74189842 -74.52956772 413.84959316 C-68.44713912 413.90479952 -62.3647057 413.95821596 -56.28222656 414.00756836 C-50.4142765 414.05524551 -44.54638505 414.1075897 -38.67850494 414.16319466 C-36.43779202 414.18360299 -34.19706302 414.20231858 -31.95632172 414.21932793 C-28.82222172 414.24340548 -25.68823242 414.2734557 -22.55419922 414.30493164 C-21.15913399 414.31356483 -21.15913399 414.31356483 -19.73588562 414.32237244 C-18.8805574 414.33216125 -18.02522919 414.34195007 -17.14398193 414.35203552 C-16.40286037 414.35848807 -15.66173882 414.36494062 -14.89815903 414.37158871 C-12.77067811 414.51413572 -10.87656402 414.93016374 -8.82861328 415.51025391 C-7.60639106 422.84358724 -7.60639106 422.84358724 -8.64111328 425.94775391 C-9.82861328 427.51025391 -9.82861328 427.51025391 -11.82861328 428.51025391 C-14.01269272 428.61330595 -16.19999391 428.64979943 -18.38648987 428.65742493 C-19.06788542 428.66110161 -19.74928098 428.6647783 -20.45132488 428.66856641 C-22.74579638 428.67962238 -25.04022262 428.68345037 -27.3347168 428.68725586 C-28.97556198 428.69351927 -30.61640573 428.70016596 -32.25724792 428.70716858 C-36.72452852 428.72459429 -41.1917984 428.7351355 -45.65910459 428.74337411 C-48.45090435 428.74852296 -51.24270079 428.75459887 -54.03449821 428.76088524 C-62.77130153 428.77994522 -71.50809638 428.79417233 -80.2449165 428.80249721 C-90.32568605 428.81226121 -100.40623553 428.83855542 -110.48692757 428.8789981 C-118.27982726 428.9091874 -126.072664 428.92396891 -133.86562103 428.92727822 C-138.51893267 428.92962629 -143.17200943 428.93855446 -147.82525826 428.9637394 C-152.20754914 428.98707317 -156.58945143 428.99123211 -160.97178841 428.98097801 C-162.57574254 428.98048376 -164.17971613 428.98677144 -165.7836113 429.00053406 C-175.33600855 429.07787844 -183.56601913 428.9294273 -191.16845703 422.54541016 C-191.69568359 421.89443359 -192.22291016 421.24345703 -192.76611328 420.57275391 C-193.31138672 419.92435547 -193.85666016 419.27595703 -194.41845703 418.60791016 C-197.05622978 414.68413186 -198.07676 411.17282203 -198.10708618 406.46720886 C-198.11824966 405.47587952 -198.12941315 404.48455017 -198.14091492 403.46318054 C-198.1430751 402.38712051 -198.14523529 401.31106049 -198.14746094 400.20239258 C-198.15750656 399.06049469 -198.16755219 397.9185968 -198.17790222 396.74209595 C-198.20877277 392.97080993 -198.22578041 389.19959504 -198.24267578 385.42822266 C-198.26138428 382.81219367 -198.28095745 380.19617073 -198.30136108 377.58015442 C-198.3481034 371.40026912 -198.38486944 365.22036653 -198.41803396 359.04039508 C-198.45628755 352.00287156 -198.50568919 344.96544004 -198.55601811 337.92799413 C-198.65927026 323.45548491 -198.74855246 308.98290977 -198.82861328 294.51025391 C-200.43114911 294.45946336 -202.03414946 294.42318559 -203.63720703 294.39306641 C-204.97609985 294.36043701 -204.97609985 294.36043701 -206.34204102 294.32714844 C-209.84567162 294.58514775 -211.50249475 295.95902713 -213.82861328 298.51025391 Z " fill="#000000" transform="translate(285.82861328125,9.48974609375)"/>
<path d="M0 0 C0.95990845 -0.00540298 1.91981689 -0.01080597 2.90881348 -0.01637268 C6.0768125 -0.02886423 9.24390361 -0.01236688 12.41186523 0.00561523 C14.61474149 0.00546027 16.81761803 0.00397171 19.02049255 0.00120544 C23.63471546 -0.0001787 28.24862758 0.01238347 32.86279297 0.03515625 C38.78018878 0.06355731 44.69706883 0.06079911 50.61450291 0.04806614 C55.16208815 0.04111517 59.70955395 0.04889136 64.25712395 0.06132317 C66.43923421 0.06584213 68.62135727 0.06617059 70.8034687 0.06225777 C73.85101798 0.05935088 76.89785338 0.07582737 79.9453125 0.09765625 C80.84879929 0.0931546 81.75228607 0.08865295 82.68315125 0.08401489 C88.78528083 0.15672178 88.78528083 0.15672178 91.95030212 1.91026306 C93.65331209 3.76958149 94.12685009 4.88917417 94.47045898 7.37670898 C94.58518555 8.03413086 94.69991211 8.69155273 94.81811523 9.36889648 C94.12569673 12.96947273 92.24943878 14.27675513 89.40795898 16.50170898 C86.21620744 17.23281767 83.09492228 17.17521009 79.83178711 17.1328125 C78.87348495 17.1399678 77.9151828 17.14712311 76.92784119 17.15449524 C73.76447684 17.17138499 70.60252907 17.15197736 67.43920898 17.13061523 C65.23872765 17.1314439 63.03824637 17.1339032 60.83776855 17.13792419 C56.22767488 17.1407824 51.61806699 17.12607822 47.00805664 17.09863281 C41.09961087 17.06455052 35.19203379 17.07056832 29.28354645 17.08929539 C24.74018111 17.09986536 20.19701781 17.09092747 15.65367126 17.07591057 C13.47518005 17.07072831 11.29666775 17.07121108 9.11817932 17.07745552 C6.0730352 17.08290751 3.02913342 17.0625322 -0.01586914 17.03515625 C-0.91576065 17.04168213 -1.81565216 17.04820801 -2.74281311 17.05493164 C-6.89374704 16.99149748 -9.05286368 16.83829113 -12.64904785 14.59336853 C-14.73493054 12.3478864 -15.27594512 11.5175993 -15.21704102 8.50170898 C-15.22993164 7.84170898 -15.24282227 7.18170898 -15.25610352 6.50170898 C-12.93364481 -0.49299018 -6.08894069 -0.06530242 0 0 Z " fill="#000000" transform="translate(188.592041015625,84.498291015625)"/>
<path d="M0 0 C1.22177444 -0.00639748 1.22177444 -0.00639748 2.4682312 -0.01292419 C3.80315865 -0.01224442 3.80315865 -0.01224442 5.16505432 -0.0115509 C6.5752182 -0.01658882 6.5752182 -0.01658882 8.01387024 -0.02172852 C11.12751072 -0.03124245 14.24109746 -0.0331818 17.35475159 -0.03425598 C19.51564557 -0.03746804 21.67653934 -0.04083208 23.83743286 -0.04434204 C28.36933395 -0.05033427 32.90121596 -0.05218182 37.43312073 -0.05158997 C43.2450909 -0.05148829 49.05693904 -0.0651457 54.86888027 -0.08236217 C59.33236251 -0.09347058 63.79581512 -0.09550954 68.25930977 -0.09498024 C70.40235375 -0.09616191 72.54539847 -0.1005941 74.68842888 -0.10831261 C77.68332898 -0.11808985 80.6779626 -0.11524346 83.67286682 -0.10920715 C84.56079422 -0.11482666 85.44872162 -0.12044617 86.36355591 -0.12623596 C87.58956009 -0.11994423 87.58956009 -0.11994423 88.84033203 -0.11352539 C89.90192362 -0.11434254 89.90192362 -0.11434254 90.98496151 -0.1151762 C93.35157256 0.17952759 94.94395238 0.914172 96.98365784 2.13371277 C99.08045186 4.8295908 98.97876605 6.22665677 98.79615784 9.69621277 C97.975837 13.16680091 97.69840324 14.05464296 94.98365784 16.13371277 C93.04833317 16.5140295 93.04833317 16.5140295 90.81546021 16.52139282 C89.96728729 16.53129745 89.11911438 16.54120209 88.24523926 16.55140686 C87.31788467 16.54690521 86.39053009 16.54240356 85.43507385 16.5377655 C84.45595032 16.54462875 83.47682678 16.551492 82.46803284 16.55856323 C79.22439664 16.57689719 75.98124109 16.57298422 72.73756409 16.56730652 C70.48698773 16.57186522 68.23641277 16.57716985 65.98583984 16.58319092 C61.26557261 16.59213505 56.54547445 16.5896841 51.82521057 16.57975769 C45.77093414 16.56826776 39.71724091 16.58847371 33.66304111 16.61767483 C29.01423423 16.63600582 24.36556788 16.63575051 19.71673393 16.63003731 C17.48437113 16.62988371 15.25199903 16.63595992 13.01967049 16.64832878 C9.89995182 16.66317771 6.78132058 16.65260599 3.66163635 16.63542175 C2.736306 16.64508972 1.81097565 16.65475769 0.85760498 16.66471863 C-5.36348055 16.59282729 -5.36348055 16.59282729 -8.59387207 14.32110596 C-10.67388701 11.12257789 -10.48276509 8.86509618 -10.01634216 5.13371277 C-7.58481368 0.73380409 -4.82422485 0.01142948 0 0 Z " fill="#000000" transform="translate(184.01634216308594,144.8662872314453)"/>
<path d="M0 0 C0.94854858 -0.00554901 1.89709717 -0.01109802 2.87438965 -0.01681519 C6.00531765 -0.02861199 9.13479853 -0.00433526 12.265625 0.02148438 C14.44368422 0.02319553 16.62174551 0.02312975 18.79980469 0.0213623 C23.36283085 0.02301558 27.92536574 0.04171551 32.48828125 0.07324219 C38.3360953 0.11291942 44.18326585 0.11728739 50.03118896 0.10977936 C54.52821748 0.10670925 59.02510142 0.11883174 63.52209473 0.13591003 C65.67825412 0.1429394 67.8344299 0.14606464 69.99060059 0.1452179 C73.00445138 0.14701638 76.01753238 0.16840316 79.03125 0.1953125 C79.92179077 0.1923819 80.81233154 0.18945129 81.7298584 0.18643188 C86.4623822 0.25159921 89.68588475 0.51137236 93.515625 3.61523438 C94.3984375 5.48242187 94.3984375 5.48242187 94.640625 7.49023438 C94.74632812 8.14765625 94.85203125 8.80507812 94.9609375 9.48242188 C94.21160508 13.07132979 92.36469011 14.38762628 89.515625 16.61523438 C86.28839484 17.34771441 83.1298575 17.28867554 79.83178711 17.24633789 C78.86212509 17.25349319 77.89246307 17.2606485 76.89341736 17.26802063 C73.69278656 17.28491 70.49355578 17.26550433 67.29296875 17.24414062 C65.06767155 17.24496923 62.84237441 17.24742829 60.61708069 17.25144958 C55.95571447 17.25430768 51.29482873 17.23960349 46.63354492 17.2121582 C40.65550182 17.17805613 34.67831683 17.18410039 28.70023251 17.20282078 C24.10629612 17.21338294 19.51255982 17.20446031 14.91864204 17.18943596 C12.71420447 17.18424929 10.50974605 17.1847418 8.3053112 17.19098091 C5.22643874 17.19642426 2.14880026 17.17608609 -0.92993164 17.14868164 C-2.29918793 17.15847046 -2.29918793 17.15847046 -3.69610596 17.16845703 C-9.83604958 17.07541364 -9.83604958 17.07541364 -13.04637146 14.79673767 C-15.19631895 11.5351897 -15.08713338 9.43270409 -14.484375 5.61523438 C-10.33261269 -0.12214002 -6.5589813 -0.09768601 0 0 Z " fill="#000000" transform="translate(188.484375,114.384765625)"/>
<path d="M0 0 C0.91899582 -0.0049649 1.83799164 -0.00992981 2.78483582 -0.01504517 C5.82873276 -0.02966503 8.8725776 -0.03646822 11.91650391 -0.04199219 C14.03016156 -0.04774341 16.14381919 -0.05350115 18.25747681 -0.05926514 C22.69102217 -0.06977437 27.1245494 -0.07561767 31.55810547 -0.07910156 C37.23999524 -0.08458866 42.92164565 -0.10862173 48.60346031 -0.13707352 C52.97004905 -0.15569303 57.33658002 -0.16090512 61.70320511 -0.16243744 C63.79798314 -0.16546562 65.89276012 -0.17349969 67.98749924 -0.18662262 C70.91763302 -0.20366991 73.84718055 -0.2018061 76.77734375 -0.1953125 C77.6429744 -0.20452728 78.50860504 -0.21374207 79.40046692 -0.22323608 C84.09130345 -0.19065776 87.23138027 0.08137076 91.01806641 3.16113281 C93.01806641 6.16113281 93.01806641 6.16113281 92.83056641 9.66113281 C92.01422901 13.17766313 91.76313218 14.06511404 89.01806641 16.16113281 C87.08274174 16.54144955 87.08274174 16.54144955 84.84986877 16.54881287 C84.00169586 16.5587175 83.15352295 16.56862213 82.27964783 16.5788269 C81.35229324 16.57432526 80.42493866 16.56982361 79.46948242 16.56518555 C78.49035889 16.5720488 77.51123535 16.57891205 76.50244141 16.58598328 C73.25880521 16.60431724 70.01564966 16.60040427 66.77197266 16.59472656 C64.5213963 16.59928526 62.27082133 16.60458989 60.02024841 16.61061096 C55.29998118 16.6195551 50.57988302 16.61710415 45.85961914 16.60717773 C39.80534271 16.59568781 33.75164948 16.61589376 27.69744968 16.64509487 C23.0486428 16.66342586 18.39997645 16.66317055 13.7511425 16.65745735 C11.5187797 16.65730375 9.2864076 16.66337997 7.05407906 16.67574883 C3.93436039 16.69059775 0.81572915 16.68002604 -2.30395508 16.6628418 C-3.22928543 16.67250977 -4.15461578 16.68217773 -5.10798645 16.69213867 C-11.3300779 16.62023571 -11.3300779 16.62023571 -14.55555725 14.348526 C-16.65877302 11.12317817 -16.51930303 8.92271889 -15.98193359 5.16113281 C-11.66867293 -0.49072599 -6.59147021 0.00847247 0 0 Z " fill="#000000" transform="translate(189.98193359375,174.8388671875)"/>
<path d="M0 0 C0.73513824 -0.0049649 1.47027649 -0.00992981 2.22769165 -0.01504517 C4.66498747 -0.02967643 7.10221822 -0.03647034 9.53955078 -0.04199219 C11.23104861 -0.04774282 12.92254641 -0.05350056 14.61404419 -0.05926514 C18.16327214 -0.06977785 21.71247742 -0.07561875 25.26171875 -0.07910156 C29.81042804 -0.08458708 34.35883811 -0.10861504 38.90745354 -0.13707352 C42.40244422 -0.15569391 45.89736274 -0.16090517 49.39239883 -0.16243744 C51.06934368 -0.16546583 52.7462872 -0.17350065 54.42318344 -0.18662262 C56.76933326 -0.20367106 59.11475093 -0.20180614 61.4609375 -0.1953125 C62.15407043 -0.20452728 62.84720337 -0.21374207 63.56134033 -0.22323608 C66.55874444 -0.19723793 68.61199616 0.02591655 71.26370239 1.47247314 C73.80985521 4.16617752 73.79744517 6.54088244 73.85986328 10.16113281 C72.51423929 13.10869013 71.77431784 14.70390553 68.85986328 16.16113281 C66.47064533 16.27460202 64.10986719 16.32891642 61.71972656 16.33813477 C60.98458832 16.34470596 60.24945007 16.35127716 59.49203491 16.35804749 C57.05474755 16.37778852 54.61752178 16.38944401 52.18017578 16.39941406 C50.9327038 16.40552735 50.9327038 16.40552735 49.66003036 16.41176414 C45.2593587 16.43262703 40.85871825 16.44692852 36.45800781 16.45629883 C31.90920929 16.46737165 27.36089883 16.50178062 22.81227303 16.54147053 C19.3172819 16.56759349 15.8224079 16.57598673 12.32732773 16.57958031 C10.65036594 16.58445647 8.97340974 16.59609972 7.29654312 16.6146183 C4.95022939 16.63892189 2.60518966 16.63806162 0.25878906 16.63110352 C-0.43434387 16.64391357 -1.12747681 16.65672363 -1.84161377 16.66992188 C-5.16991729 16.63392794 -6.87184925 16.3671364 -9.54397583 14.31535339 C-11.62349948 11.50877376 -12.06897033 9.64828593 -12.14013672 6.16113281 C-9.24195779 -0.0492506 -6.34482864 0.01017328 0 0 Z " fill="#000000" transform="translate(225.14013671875,320.8388671875)"/>
<path d="M0 0 C0.95769287 -0.00478363 1.91538574 -0.00956726 2.90209961 -0.01449585 C4.92270555 -0.01789151 6.94336668 -0.00871245 8.96386719 0.01220703 C12.05268111 0.0389774 15.1378613 0.01244798 18.2265625 -0.01953125 C20.19271634 -0.01622709 22.15886791 -0.00982074 24.125 0 C25.04595459 -0.01012115 25.96690918 -0.02024231 26.91577148 -0.03067017 C31.48453781 0.05263349 33.4473131 0.1854598 37.15795898 3.07226562 C39.0625 5.6640625 39.0625 5.6640625 39.47265625 7.796875 C39.35792969 8.45429687 39.24320312 9.11171875 39.125 9.7890625 C38.98771484 10.78292969 38.98771484 10.78292969 38.84765625 11.796875 C37.69572122 14.53630259 36.70182998 15.21104982 34.0625 16.6640625 C30.78645644 17.14088893 27.52893897 17.13209343 24.22265625 17.1328125 C22.78399452 17.14423279 22.78399452 17.14423279 21.31626892 17.15588379 C19.28972983 17.16667953 17.26313512 17.16954003 15.23657227 17.16503906 C12.13919109 17.16406695 9.04428903 17.20568999 5.94726562 17.25 C3.97656766 17.25520731 2.00586109 17.25789519 0.03515625 17.2578125 C-0.88893539 17.27420776 -1.81302704 17.29060303 -2.76512146 17.30749512 C-7.30775882 17.25877457 -9.30855889 17.14319883 -13.02172852 14.31445312 C-14.9375 11.6640625 -14.9375 11.6640625 -15.5625 8.6640625 C-13.78422503 0.12834265 -7.30812435 -0.08031521 0 0 Z " fill="#000000" transform="translate(243.9375,54.3359375)"/>
<path d="M0 0 C1.84851563 -0.05607422 1.84851563 -0.05607422 3.734375 -0.11328125 C13.86490852 -0.21216932 13.86490852 -0.21216932 16.94140625 2.67578125 C19.15356693 6.22242401 19.29704857 8.26803654 18.625 12.375 C16.4027187 15.38445163 15.20514773 16.27658208 11.48046875 16.90844727 C10.27003906 16.91932373 9.05960937 16.9302002 7.8125 16.94140625 C7.16176514 16.94760483 6.51103027 16.95380341 5.84057617 16.96018982 C4.46892793 16.967273 3.09719345 16.96413995 1.72558594 16.95141602 C-0.36945088 16.93753676 -2.46002711 16.97164064 -4.5546875 17.00976562 C-5.89062609 17.01071683 -7.22657025 17.00885789 -8.5625 17.00390625 C-9.77292969 17.00463135 -10.98335938 17.00535645 -12.23046875 17.00610352 C-15.375 16.375 -15.375 16.375 -17.7734375 14.02709961 C-19.72285097 10.79897789 -19.92785302 9.08701316 -19.375 5.375 C-15.37274431 -1.67659337 -7.14655811 0.0817174 0 0 Z " fill="#000000" transform="translate(319.375,114.625)"/>
<path d="M0 0 C1.27101563 -0.01095703 2.54203125 -0.02191406 3.8515625 -0.03320312 C14.38039106 0.04991921 14.38039106 0.04991921 19 4.5625 C19.6640625 6.5625 19.6640625 6.5625 19.625 8.5625 C19.63789063 9.2225 19.65078125 9.8825 19.6640625 10.5625 C18.62606721 13.68869758 16.69854228 14.76047804 14 16.5625 C9.36398766 17.37106377 4.69897792 17.16550843 0 17.125 C-1.27101563 17.14884766 -2.54203125 17.17269531 -3.8515625 17.19726562 C-14.21171339 17.18090749 -14.21171339 17.18090749 -17.3359375 14.21484375 C-19.40534724 10.91641836 -19.79598379 9.38322219 -19 5.5625 C-14.58671758 -1.47181634 -7.57353528 -0.1420998 0 0 Z " fill="#000000" transform="translate(319,84.4375)"/>
<path d="M0 0 C1.18916016 -0.020625 2.37832031 -0.04125 3.60351562 -0.0625 C4.75142578 -0.06765625 5.89933594 -0.0728125 7.08203125 -0.078125 C8.13237549 -0.0874707 9.18271973 -0.09681641 10.26489258 -0.10644531 C13.61576178 0.30223141 15.48421475 1.26119549 18.1875 3.25 C19.73336876 6.34173752 19.48109521 8.84429552 19.1875 12.25 C16.98445108 15.27885479 15.76778706 16.15155845 12.04296875 16.78344727 C10.83253906 16.79432373 9.62210937 16.8052002 8.375 16.81640625 C7.72426514 16.82260483 7.07353027 16.82880341 6.40307617 16.83518982 C5.03142793 16.842273 3.65969345 16.83913995 2.28808594 16.82641602 C0.19304912 16.81253676 -1.89752711 16.84664064 -3.9921875 16.88476562 C-5.32812609 16.88571683 -6.66407025 16.88385789 -8 16.87890625 C-9.21042969 16.87963135 -10.42085938 16.88035645 -11.66796875 16.88110352 C-14.8125 16.25 -14.8125 16.25 -17.20703125 13.90209961 C-19.17049443 10.65862325 -19.4472189 8.97897354 -18.8125 5.25 C-13.59791243 -1.18132466 -7.72070682 0.03315387 0 0 Z " fill="#000000" transform="translate(318.8125,144.75)"/>
<path d="M0 0 C1.08087891 -0.020625 2.16175781 -0.04125 3.27539062 -0.0625 C13.38096215 -0.11212834 13.38096215 -0.11212834 18.1875 3.25 C19.73336876 6.34173752 19.48109521 8.84429552 19.1875 12.25 C16.98333385 15.28342964 15.77573608 16.15317853 12.04296875 16.76757812 C10.83253906 16.77208984 9.62210937 16.77660156 8.375 16.78125 C7.72426514 16.7850769 7.07353027 16.78890381 6.40307617 16.79284668 C5.03139696 16.79556076 3.65966556 16.78823453 2.28808594 16.77148438 C0.19348315 16.75006119 -1.89769084 16.77129637 -3.9921875 16.796875 C-5.32813254 16.79423163 -6.66407545 16.78910643 -8 16.78125 C-9.21042969 16.77673828 -10.42085938 16.77222656 -11.66796875 16.76757812 C-15.40093831 16.15314525 -16.59427846 15.26969575 -18.8125 12.25 C-19.3125 8.75 -19.3125 8.75 -18.8125 5.25 C-13.95478167 -1.11528609 -7.30647695 0.03448485 0 0 Z " fill="#000000" transform="translate(318.8125,174.75)"/>
</svg>
