<?xml version="1.0" encoding="UTF-8"?>
<svg version="1.1" xmlns="http://www.w3.org/2000/svg" width="512" height="512">
<path d="M0 0 C1.02924377 -0.00256327 2.05848753 -0.00512655 3.11892051 -0.0077675 C6.57225215 -0.01271405 10.02514788 0.00380235 13.47843933 0.02018738 C15.95205169 0.02103346 18.42566481 0.02055888 20.89927673 0.01885986 C26.2271162 0.01817642 31.55481964 0.02669274 36.88262367 0.04357338 C44.58569153 0.06796391 52.28870609 0.0757687 59.99180838 0.07953735 C72.48982366 0.08610176 84.98778017 0.10606261 97.48576355 0.13444519 C109.62573452 0.16198605 121.76568952 0.1832195 133.90568542 0.19596863 C134.6541077 0.1967568 135.40252997 0.19754497 136.17363171 0.19835702 C139.92828032 0.20227216 143.68292904 0.20606328 147.43757784 0.20979273 C178.58169355 0.2408883 209.72573622 0.29394694 240.86979675 0.36076355 C240.87476197 1.24010355 240.87476197 1.24010355 240.8798275 2.13720798 C240.96113909 16.41838537 241.05325816 30.69946302 241.15732384 44.98049259 C241.20739067 51.88676819 241.25383411 58.79303228 241.29167175 65.6993866 C241.3282002 72.36490488 241.37492633 79.03028056 241.42786026 85.69569206 C241.44638683 88.23814602 241.46150119 90.78062721 241.47314072 93.32312202 C241.49003253 96.88536208 241.51907558 100.44731203 241.5509491 104.00944519 C241.55310928 105.05961319 241.55526947 106.10978119 241.55749512 107.19177246 C241.63457871 113.93966379 241.77314288 119.66506571 246.05729675 125.17326355 C252.37881273 130.0899982 259.54254068 129.66381644 267.22111511 129.67961121 C268.34379791 129.68965683 269.46648071 129.69970245 270.6231842 129.71005249 C274.31866463 129.74084066 278.01407274 129.75790776 281.7096405 129.77482605 C284.27797058 129.79354117 286.84629454 129.81311484 289.41461182 129.83351135 C295.47402446 129.87956501 301.53343358 129.91698625 307.59292847 129.95018423 C314.49507237 129.9884836 321.39712321 130.03787312 328.29918849 130.08816838 C342.48932096 130.19132458 356.67951648 130.28063771 370.86979675 130.36076355 C370.96131012 177.77660798 371.03181404 225.19244309 371.07405807 272.60835839 C371.07906102 278.2035613 371.0842383 283.79876403 371.08952332 289.39396667 C371.09057256 290.50789212 371.0916218 291.62181757 371.09270284 292.76949833 C371.11011807 310.81678056 371.14166192 328.86401192 371.17840794 346.91126396 C371.21578624 365.4231529 371.23802602 383.93501517 371.24615073 402.4469403 C371.25164496 413.87397759 371.26901111 425.30087114 371.30146262 436.72786419 C371.3225721 444.55895464 371.32900489 452.38997056 371.32380226 460.22108741 C371.32123493 464.74232429 371.32522858 469.26330963 371.34661865 473.78450203 C371.36605319 477.92249561 371.36708708 482.06006798 371.35339233 486.19808076 C371.35169923 487.69616722 371.35679985 489.19427974 371.36932948 490.69231476 C371.38536178 492.72721394 371.37434765 494.76227254 371.36198807 496.79719734 C371.36350695 497.92800449 371.36502583 499.05881163 371.36659074 500.22388566 C370.58850373 505.13691605 368.39435257 508.15952313 364.52030557 511.21199375 C361.31736682 512.60019487 358.95130764 512.73788772 355.46165562 512.74108028 C354.15957741 512.74952022 352.85749921 512.75796017 351.51596409 512.76665586 C350.07275504 512.76086072 348.62954711 512.7547797 347.18634033 512.7484436 C345.65187151 512.75261604 344.11740576 512.75809306 342.58294576 512.76476341 C338.36437941 512.77924863 334.14600791 512.77496374 329.92743075 512.7675966 C325.37860366 512.76287483 320.82981933 512.77536598 316.28100586 512.78561401 C307.36882254 512.80282673 298.45670964 512.80363692 289.54451401 512.79840111 C282.30211377 512.79436284 275.05973437 512.79579889 267.81733513 512.80114937 C266.78731053 512.80189779 265.75728594 512.80264621 264.69604848 512.80341731 C262.60368653 512.80494876 260.51132459 512.80648711 258.41896265 512.80803228 C238.78887535 512.82176623 219.15882787 512.81631331 199.52874147 512.80484707 C181.5625961 512.79491335 163.5965537 512.80785618 145.63042421 512.83178126 C127.19068386 512.85615238 108.75099151 512.86578505 90.31123537 512.85912853 C79.95553782 512.85563194 69.59991948 512.85789739 59.24423409 512.87537956 C50.42880239 512.89007669 41.61350568 512.89076962 32.7980767 512.87330865 C28.29909707 512.86477578 23.80035885 512.86270469 19.3013916 512.87796021 C15.18392754 512.89174942 11.06691301 512.887119 6.94947534 512.86772097 C5.45895051 512.86394285 3.96839017 512.86693487 2.47789682 512.87733262 C0.45322638 512.89045388 -1.5715653 512.87656495 -3.59622097 512.8613348 C-4.72127999 512.86122746 -5.84633901 512.86112013 -7.00549072 512.86100954 C-11.86819082 512.08252313 -14.86631062 509.88353319 -17.98143345 506.13035482 C-19.51883538 502.42380284 -19.54470697 498.9933522 -19.51051998 495.0473032 C-19.51750986 493.79026084 -19.51750986 493.79026084 -19.52464095 492.50782368 C-19.5366349 489.68696312 -19.52717857 486.8665803 -19.5178833 484.04571533 C-19.52205429 482.00802184 -19.5275305 479.97033067 -19.53420311 477.93264383 C-19.54870724 472.32310078 -19.5443975 466.71370403 -19.5370363 461.1041528 C-19.53231921 455.05838382 -19.54480151 449.01264716 -19.55505371 442.96688843 C-19.57127955 431.80420635 -19.57368109 420.6415698 -19.56874872 409.47888216 C-19.56419428 399.16661448 -19.5647873 388.85436421 -19.57058907 378.54209709 C-19.57134593 377.159654 -19.57210191 375.7772109 -19.57285701 374.3947678 C-19.57400218 372.31163661 -19.57515206 370.22850543 -19.57631625 368.14537425 C-19.58702377 348.77430619 -19.59174391 329.40324395 -19.58384609 310.03217411 C-19.58354892 309.30172253 -19.58325175 308.57127095 -19.58294557 307.81868448 C-19.58049655 301.886628 -19.577885 295.9545716 -19.57526143 290.0225152 C-19.5651581 266.8810867 -19.573515 243.73973076 -19.59675598 220.59831238 C-19.62281685 194.60693911 -19.63567968 168.61560952 -19.62856823 142.6242227 C-19.62785215 139.85389706 -19.62717777 137.08357142 -19.62652779 134.31324577 C-19.62635798 133.63110648 -19.62618817 132.94896718 -19.62601321 132.24615699 C-19.62370839 121.94045596 -19.63169594 111.63479542 -19.64481926 101.32910347 C-19.6597138 89.61148697 -19.66022077 77.89394922 -19.64274835 66.17632896 C-19.63420833 60.19487522 -19.63216188 54.21360315 -19.6473999 48.23215866 C-19.66116766 42.76022414 -19.65658623 37.28862828 -19.63716067 31.81671374 C-19.63337594 29.83359427 -19.63639312 27.85044818 -19.64677232 25.86735225 C-19.65985153 23.17784432 -19.64844029 20.48952105 -19.6307745 17.80006504 C-19.64042501 17.02470971 -19.65007552 16.24935438 -19.66001847 15.45050344 C-19.58991335 10.27544106 -18.37620778 7.35963645 -15.13020325 3.36076355 C-10.62882706 -0.57836115 -5.67614076 -0.05155697 0 0 Z M43.86979675 96.36076355 C41.1490363 100.82853861 41.2188516 105.27374776 41.86979675 110.36076355 C44.06323486 114.82887821 46.35684812 117.26939711 50.86979675 119.36076355 C55.69269083 120.68523026 60.54511444 120.50850842 65.50602722 120.50602722 C66.47087036 120.50938583 67.4357135 120.51274445 68.42979431 120.51620483 C71.61553743 120.5256944 74.80122788 120.52765692 77.98698425 120.5287323 C80.2050936 120.53194616 82.42320274 120.53531034 84.64131165 120.53881836 C89.28990673 120.54480457 93.93848324 120.54665877 98.58708191 120.54606628 C104.53770217 120.54596467 110.4882031 120.55961865 116.43879509 120.57683849 C121.01991827 120.5879677 125.60101267 120.58998521 130.18214798 120.58945656 C132.37574296 120.59063521 134.56933873 120.59505056 136.76292038 120.60278893 C139.83362391 120.61260765 142.90406936 120.60970328 145.97477722 120.60368347 C147.32785477 120.61211273 147.32785477 120.61211273 148.70826721 120.62071228 C155.17544117 120.58856474 160.60666981 120.32214024 165.68229675 115.92326355 C169.62058539 111.30983972 170.31525555 108.77057942 170.186203 102.86857605 C169.71937658 99.16854442 168.34416095 97.10262658 165.86979675 94.36076355 C159.82715744 89.86751893 153.45001758 90.21189057 146.23356628 90.21549988 C145.26872314 90.21214127 144.30388 90.20878265 143.30979919 90.20532227 C140.12405607 90.1958327 136.93836562 90.19387018 133.75260925 90.1927948 C131.5344999 90.18958094 129.31639077 90.18621676 127.09828186 90.18270874 C122.44968677 90.17672253 117.80111027 90.17486833 113.1525116 90.17546082 C107.20189133 90.17556243 101.2513904 90.16190845 95.30079842 90.14468861 C90.71967524 90.1335594 86.13858084 90.13154189 81.55744553 90.13207054 C79.36385054 90.13089189 77.17025478 90.12647654 74.97667313 90.11873817 C71.90596959 90.10891945 68.83552415 90.11182382 65.76481628 90.11784363 C64.86276459 90.11222412 63.96071289 90.10660461 63.03132629 90.10081482 C55.54526682 90.13802711 49.48114814 90.90973649 43.86979675 96.36076355 Z M44.99479675 174.73576355 C43.6119505 177.96240481 43.37220587 179.87762737 43.86979675 183.36076355 C46.20835587 187.77804189 48.38139538 190.20481795 52.86979675 192.36076355 C56.22271683 192.72144857 56.22271683 192.72144857 59.68229675 192.54826355 C60.84374207 192.52119324 62.00518738 192.49412292 63.201828 192.4662323 C64.08225769 192.43142761 64.96268738 192.39662292 65.86979675 192.36076355 C65.86091431 193.23693329 65.85203186 194.11310303 65.84288025 195.01582336 C65.76263753 203.28437322 65.70178319 211.55279177 65.66254807 219.82164192 C65.64169847 224.07248204 65.61342942 228.32299965 65.56803894 232.57365417 C65.52448658 236.6779941 65.50063988 240.78202438 65.49028778 244.88657761 C65.48291318 246.45025887 65.46851209 248.01392372 65.44687653 249.57747269 C65.41771613 251.77269481 65.41384579 253.96664756 65.41569519 256.16203308 C65.40681274 257.41001678 65.3979303 258.65800049 65.38877869 259.94380188 C66.09577701 264.96603774 68.29826057 268.12007709 72.24479675 271.23576355 C75.47143802 272.61860981 77.38666058 272.85835443 80.86979675 272.36076355 C85.29042517 270.02043086 87.71106465 267.85035542 89.86979675 263.36076355 C90.3021933 259.98910169 90.3021933 259.98910169 90.21037292 256.27555847 C90.210811 255.58232483 90.21124908 254.88909119 90.21170044 254.17485046 C90.20962005 251.89668544 90.18632569 249.61926784 90.1627655 247.3412323 C90.15716685 245.75654502 90.15289802 244.17185254 90.14990234 242.5871582 C90.13847469 238.42613771 90.10902567 234.2654338 90.07579041 230.10453796 C90.0450445 225.85470359 90.03138737 221.60481783 90.01628113 217.35490417 C89.98415374 209.02337906 89.93298285 200.69211074 89.86979675 192.36076355 C90.75022644 192.39556824 91.63065613 192.43037292 92.5377655 192.4662323 C94.27993347 192.50683777 94.27993347 192.50683777 96.05729675 192.54826355 C97.78012878 192.60047058 97.78012878 192.60047058 99.5377655 192.6537323 C104.32228926 192.23305319 106.80267611 190.3990431 110.18229675 187.11076355 C112.36360859 183.55603314 112.38358698 181.47108536 111.86979675 177.36076355 C110.34987571 174.17616709 108.58683717 171.62496389 105.86979675 169.36076355 C102.96736328 168.39328573 101.05729514 168.21822207 98.03459167 168.1837616 C97.05314682 168.17092636 96.07170197 168.15809113 95.06051636 168.14486694 C94.00113358 168.13748001 92.94175079 168.13009308 91.8502655 168.1224823 C90.75893814 168.11441055 89.66761078 168.10633881 88.54321289 168.09802246 C86.23241259 168.08418694 83.92159189 168.07346241 81.61076355 168.06559753 C78.08147888 168.04838151 74.55313015 168.00448896 71.02409363 167.96037292 C68.7786578 167.95024612 66.53321402 167.94172998 64.2877655 167.9349823 C63.23445541 167.91747421 62.18114532 167.89996613 61.09591675 167.88192749 C53.76351917 167.90357589 49.69768104 168.77877679 44.99479675 174.73576355 Z M152.86979675 171.36076355 C148.80845321 176.70061939 146.3652133 182.64116917 144.0846405 188.8959198 C143.57738182 190.25268326 143.57738182 190.25268326 143.05987549 191.63685608 C141.96766155 194.56274428 140.88741269 197.49289036 139.80729675 200.42326355 C138.67671521 203.46297505 137.54318006 206.50157307 136.40925598 209.54003906 C135.65160124 211.57043218 134.89490647 213.60118378 134.13917542 215.6322937 C131.84927455 221.77745612 129.51630487 227.90330751 127.123703 234.00920105 C126.84155441 234.73008408 126.55940582 235.4509671 126.26870728 236.19369507 C125.21818286 238.87368743 124.16599159 241.55293791 123.10292053 244.22798157 C122.3954321 246.00863151 121.69493744 247.79205548 120.99479675 249.5756073 C120.60549988 250.5565033 120.216203 251.53739929 119.81510925 252.54801941 C118.26937877 257.14728616 117.55266298 260.27877772 118.93229675 264.98576355 C121.17848218 268.89847364 122.81568039 270.41166914 126.86979675 272.36076355 C131.03355546 272.95558622 133.15028504 272.74014245 136.87760925 270.77482605 C140.32616334 267.99257223 141.72216946 265.27114191 143.24479675 261.23576355 C143.50389832 260.60283386 143.76299988 259.96990417 144.029953 259.3177948 C145.42358373 255.94404421 145.42358373 255.94404421 145.86979675 252.36076355 C156.42979675 252.36076355 166.98979675 252.36076355 177.86979675 252.36076355 C178.85979675 255.66076355 179.84979675 258.96076355 180.86979675 262.36076355 C182.7316088 266.40538973 184.02105047 268.74349353 187.61979675 271.36076355 C191.7160629 272.62115313 194.79436998 272.73044306 198.86979675 271.36076355 C203.01396041 268.20759555 204.66419365 265.37657926 205.86979675 260.36076355 C205.43709614 257.34125431 205.43709614 257.34125431 204.30680847 254.32511902 C203.92151978 253.18685669 203.53623108 252.04859436 203.13926697 250.87583923 C202.7203418 249.71586426 202.30141663 248.55588928 201.86979675 247.36076355 C201.48100342 246.2760376 201.09221008 245.19131165 200.69163513 244.07371521 C199.44842689 240.6815553 198.16868414 237.30529504 196.87760925 233.93107605 C196.4091861 232.69767487 195.94076294 231.46427368 195.45814514 230.1934967 C194.47398726 227.60262736 193.4872113 225.01277791 192.49821472 222.42375183 C191.00126115 218.50488394 189.51150334 214.58330235 188.0221405 210.6615448 C186.13956185 205.70552527 184.24426218 200.75461286 182.33952332 195.80705261 C180.87676876 192.0074198 179.43792112 188.20243486 178.04850769 184.37541199 C177.78778473 183.67584381 177.52706177 182.97627563 177.25843811 182.25550842 C176.62036763 180.54317456 175.99776515 178.82509587 175.37712097 177.10636902 C173.13706099 173.02607836 170.00957597 170.10255368 165.52604675 168.54826355 C160.46701605 168.10834784 157.10099212 168.18736702 152.86979675 171.36076355 Z M229.55729675 173.54826355 C227.80783435 176.46403422 227.04112465 178.60058888 227.24479675 182.02482605 C228.52122488 186.79547617 231.63575806 190.59650512 234.52507019 194.5287323 C236.58813841 197.33941929 238.60820377 200.1802637 240.62663269 203.02311707 C241.68808362 204.5155222 242.75623802 206.00318698 243.83171082 207.48551941 C249.41667368 215.27263131 249.41667368 215.27263131 249.86979675 218.36076355 C248.4484574 221.05448092 247.06133415 223.20539094 245.24479675 225.61076355 C244.74786316 226.29952576 244.25092957 226.98828796 243.73893738 227.69792175 C242.67866796 229.16638166 241.61103264 230.62954612 240.53678894 232.08781433 C238.30164398 235.13544168 236.12290511 238.22125592 233.94645691 241.31095886 C232.91629093 242.77278002 231.88226947 244.23189381 230.84391785 245.68791199 C225.0834891 253.21159688 225.0834891 253.21159688 223.40104675 262.2943573 C224.31728761 266.33345242 226.53436289 268.98708055 229.86979675 271.36076355 C232.96241709 272.48535276 235.62178124 272.93999298 238.86979675 272.36076355 C244.45541019 269.46701201 247.28907066 265.45116485 250.68229675 260.36076355 C251.7237818 258.84021499 252.76676395 257.32069082 253.811203 255.8021698 C254.32312195 255.05338562 254.83504089 254.30460144 255.36247253 253.53312683 C257.53880811 250.396581 259.81419988 247.3405073 262.11979675 244.29826355 C262.846828 243.33791199 263.57385925 242.37756042 264.32292175 241.3881073 C264.8333905 240.71908386 265.34385925 240.05006042 265.86979675 239.36076355 C267.00491233 240.90158583 268.1397438 242.442618 269.27336121 243.98454285 C270.26302753 245.33053502 271.25376921 246.67573711 272.24552917 248.02018738 C274.75042931 251.42661243 277.22291349 254.84725766 279.6158905 258.3334198 C280.26485291 259.27097107 280.26485291 259.27097107 280.92692566 260.22746277 C281.74162499 261.40910952 282.54784587 262.59666405 283.34391785 263.79093933 C286.02190245 267.65582324 288.78385321 270.05035822 292.86979675 272.36076355 C296.83386394 273.02144141 298.48929754 272.56220431 302.05729675 270.67326355 C305.7379377 267.64695877 307.45409135 265.3469116 308.43229675 260.67326355 C306.34808656 248.39958129 293.86500522 235.90304184 286.436203 226.1537323 C285.79553894 225.29392761 285.15487488 224.43412292 284.49479675 223.54826355 C283.95081238 222.84056824 283.406828 222.13287292 282.84635925 221.4037323 C281.52433819 218.63806425 282.05772706 217.28263815 282.86979675 214.36076355 C284.06559753 212.31535339 284.06559753 212.31535339 285.56510925 210.32170105 C286.11328308 209.58113464 286.66145691 208.84056824 287.22624207 208.07756042 C288.10167664 206.91837097 288.10167664 206.91837097 288.99479675 205.73576355 C290.18201697 204.1307094 291.36692405 202.52394165 292.54948425 200.91545105 C293.12150574 200.1378241 293.69352722 199.36019714 294.28288269 198.55900574 C301.80140836 188.86489786 301.80140836 188.86489786 303.86979675 177.36076355 C301.58254299 173.04039534 299.39894541 170.30182726 294.86979675 168.36076355 C291.11445011 167.8014566 289.36278055 168.08853898 286.02604675 169.93107605 C282.30951885 172.79206659 279.96222594 175.85183195 277.30729675 179.67326355 C276.85161316 180.31199402 276.39592957 180.95072449 275.92643738 181.60881042 C275.01755639 182.88486382 274.11429821 184.1649425 273.21696472 185.44914246 C272.29793471 186.75323904 271.36392651 188.04687664 270.41716003 189.33097839 C267.78090663 192.50980664 267.78090663 192.50980664 266.86979675 196.36076355 C264.04888831 193.67549781 261.78542356 190.97413321 259.62760925 187.73576355 C259.03592957 186.8643573 258.44424988 185.99295105 257.8346405 185.09513855 C256.61050737 183.27583241 255.3917253 181.45291405 254.1783905 179.62638855 C250.85696559 174.75592599 248.1689397 171.06686927 242.86979675 168.36076355 C236.92333663 167.51126925 233.78164459 169.55225884 229.55729675 173.54826355 Z M43.86979675 336.36076355 C41.1490363 340.82853861 41.2188516 345.27374776 41.86979675 350.36076355 C44.06323486 354.82887821 46.35684812 357.26939711 50.86979675 359.36076355 C55.7021375 360.69070186 60.56449437 360.50289391 65.53529358 360.49447632 C67.00437217 360.49787465 67.00437217 360.49787465 68.50312912 360.50134164 C71.78796128 360.5076765 75.07275213 360.5068526 78.35758972 360.50602722 C80.7114721 360.50901902 83.06535399 360.51242159 85.41923523 360.51620483 C91.81590199 360.5250466 98.21255538 360.52738301 104.60922766 360.52802062 C109.27467361 360.52859758 113.94011731 360.53174893 118.60556219 360.5348571 C131.15148102 360.54316107 143.69739277 360.54689945 156.24331425 360.54618736 C156.95552711 360.54614741 157.66773997 360.54610745 158.40153503 360.54606628 C159.1146189 360.5460254 159.82770276 360.54598452 160.56239523 360.5459424 C172.1195117 360.54553593 183.6765956 360.55510625 195.23370264 360.56920465 C207.10467733 360.58357151 218.97563613 360.59047467 230.84661973 360.58961087 C237.50958852 360.58927902 244.17252795 360.59221556 250.83549118 360.60278893 C257.10140516 360.61246064 263.36724695 360.6125554 269.63316345 360.60527229 C271.93296031 360.60422533 274.23276164 360.60659596 276.53255081 360.61263275 C279.67189662 360.62033965 282.81099229 360.61571634 285.95033264 360.60800171 C286.86035974 360.61314527 287.77038685 360.61828884 288.70799053 360.62358826 C295.17456872 360.58847247 300.60708726 360.32177845 305.68229675 355.92326355 C309.62058539 351.30983972 310.31525555 348.77057942 310.186203 342.86857605 C309.71937658 339.16854442 308.34416095 337.10262658 305.86979675 334.36076355 C299.81558229 329.85891177 293.43310599 330.21480947 286.20429993 330.22705078 C284.73522133 330.22365245 284.73522133 330.22365245 283.23646438 330.22018546 C279.95163222 330.2138506 276.66684138 330.2146745 273.38200378 330.21549988 C271.0281214 330.21250808 268.67423952 330.20910551 266.32035828 330.20532227 C259.92369152 330.1964805 253.52703813 330.19414409 247.13036585 330.19350648 C242.46491989 330.19292952 237.7994762 330.18977817 233.13403132 330.18667 C220.58811248 330.17836602 208.04220074 330.17462765 195.49627925 330.17533974 C194.42795997 330.17539967 194.42795997 330.17539967 193.33805847 330.17546082 C192.62497461 330.1755017 191.91189074 330.17554258 191.17719828 330.1755847 C179.6200818 330.17599117 168.06299791 330.16642085 156.50589086 330.15232245 C144.63491618 330.13795559 132.76395738 330.13105243 120.89297378 330.13191622 C114.23000498 330.13224808 107.56706556 330.12931154 100.90410233 330.11873817 C94.63818834 330.10906646 88.37234656 330.1089717 82.10643005 330.11625481 C79.8066332 330.11730177 77.50683187 330.11493114 75.20704269 330.10889435 C72.06769688 330.10118745 68.92860121 330.10581076 65.78926086 330.11352539 C64.87923376 330.10838183 63.96920666 330.10323826 63.03160298 330.09793884 C55.54608783 330.13858782 49.48092224 330.90995593 43.86979675 336.36076355 Z M43.86979675 396.36076355 C41.1490363 400.82853861 41.2188516 405.27374776 41.86979675 410.36076355 C44.06323486 414.82887821 46.35684812 417.26939711 50.86979675 419.36076355 C55.7021375 420.69070186 60.56449437 420.50289391 65.53529358 420.49447632 C67.00437217 420.49787465 67.00437217 420.49787465 68.50312912 420.50134164 C71.78796128 420.5076765 75.07275213 420.5068526 78.35758972 420.50602722 C80.7114721 420.50901902 83.06535399 420.51242159 85.41923523 420.51620483 C91.81590199 420.5250466 98.21255538 420.52738301 104.60922766 420.52802062 C109.27467361 420.52859758 113.94011731 420.53174893 118.60556219 420.5348571 C131.15148102 420.54316107 143.69739277 420.54689945 156.24331425 420.54618736 C156.95552711 420.54614741 157.66773997 420.54610745 158.40153503 420.54606628 C159.1146189 420.5460254 159.82770276 420.54598452 160.56239523 420.5459424 C172.1195117 420.54553593 183.6765956 420.55510625 195.23370264 420.56920465 C207.10467733 420.58357151 218.97563613 420.59047467 230.84661973 420.58961087 C237.50958852 420.58927902 244.17252795 420.59221556 250.83549118 420.60278893 C257.10140516 420.61246064 263.36724695 420.6125554 269.63316345 420.60527229 C271.93296031 420.60422533 274.23276164 420.60659596 276.53255081 420.61263275 C279.67189662 420.62033965 282.81099229 420.61571634 285.95033264 420.60800171 C286.86035974 420.61314527 287.77038685 420.61828884 288.70799053 420.62358826 C295.17456872 420.58847247 300.60708726 420.32177845 305.68229675 415.92326355 C309.62058539 411.30983972 310.31525555 408.77057942 310.186203 402.86857605 C309.71937658 399.16854442 308.34416095 397.10262658 305.86979675 394.36076355 C299.81558229 389.85891177 293.43310599 390.21480947 286.20429993 390.22705078 C284.73522133 390.22365245 284.73522133 390.22365245 283.23646438 390.22018546 C279.95163222 390.2138506 276.66684138 390.2146745 273.38200378 390.21549988 C271.0281214 390.21250808 268.67423952 390.20910551 266.32035828 390.20532227 C259.92369152 390.1964805 253.52703813 390.19414409 247.13036585 390.19350648 C242.46491989 390.19292952 237.7994762 390.18977817 233.13403132 390.18667 C220.58811248 390.17836602 208.04220074 390.17462765 195.49627925 390.17533974 C194.42795997 390.17539967 194.42795997 390.17539967 193.33805847 390.17546082 C192.62497461 390.1755017 191.91189074 390.17554258 191.17719828 390.1755847 C179.6200818 390.17599117 168.06299791 390.16642085 156.50589086 390.15232245 C144.63491618 390.13795559 132.76395738 390.13105243 120.89297378 390.13191622 C114.23000498 390.13224808 107.56706556 390.12931154 100.90410233 390.11873817 C94.63818834 390.10906646 88.37234656 390.1089717 82.10643005 390.11625481 C79.8066332 390.11730177 77.50683187 390.11493114 75.20704269 390.10889435 C72.06769688 390.10118745 68.92860121 390.10581076 65.78926086 390.11352539 C64.87923376 390.10838183 63.96920666 390.10323826 63.03160298 390.09793884 C55.54608783 390.13858782 49.48092224 390.90995593 43.86979675 396.36076355 Z " fill="#000000" transform="translate(80.13020324707031,-0.3607635498046875)"/>
<path d="M0 0 C7.87530001 6.75025715 7.87530001 6.75025715 11.06871033 9.94172668 C11.79353607 10.6637326 12.51836182 11.38573853 13.26515198 12.12962341 C14.03479782 12.90129349 14.80444366 13.67296356 15.59741211 14.46801758 C16.42748779 15.29634094 17.25756348 16.12466431 18.11279297 16.97808838 C20.83681925 19.6977375 23.55720032 22.42099898 26.27734375 25.14453125 C28.17291403 27.03942769 30.06863148 28.93417597 31.9644928 30.82878113 C35.92612497 34.78860031 39.88565749 38.75050977 43.84399414 42.71362305 C48.42460024 47.29969268 53.0088281 51.88211839 57.59490961 56.46271211 C61.53740877 60.40068214 65.47796713 64.34058628 69.41689116 68.28213233 C71.76766083 70.63446299 74.11930031 72.98591109 76.47230339 75.33600807 C79.08673806 77.94792007 81.69797453 80.56298675 84.30834961 83.17895508 C85.09216507 83.96074631 85.87598053 84.74253754 86.68354797 85.54801941 C87.38863495 86.25592621 88.09372192 86.96383301 88.82017517 87.69319153 C89.43790267 88.31129605 90.05563017 88.92940058 90.69207668 89.56623554 C92 91 92 91 92 92 C61.64 92 31.28 92 0 92 C0 61.64 0 31.28 0 0 Z " fill="#000000" transform="translate(351,8)"/>
<path d="M0 0 C0.66 0 1.32 0 2 0 C3.98 5.28 5.96 10.56 8 16 C3.71 16 -0.58 16 -5 16 C-4.26282303 11.5769382 -3.60731663 8.61101389 -1.9375 4.625 C-1.57527344 3.75101563 -1.21304688 2.87703125 -0.83984375 1.9765625 C-0.56269531 1.32429687 -0.28554687 0.67203125 0 0 Z " fill="#000000" transform="translate(241,212)"/>
</svg>
